<?xml version="1.0" encoding="utf-8"?>
<!-- Generator: Adobe Illustrator 26.5.1, SVG Export Plug-In . SVG Version: 6.00 Build 0)  -->
<svg version="1.1" id="Layer_1" xmlns="http://www.w3.org/2000/svg" xmlns:xlink="http://www.w3.org/1999/xlink" x="0px" y="0px"
	 viewBox="0 0 500 300" style="enable-background:new 0 0 500 300;" xml:space="preserve">
<style type="text/css">
	.st0{fill:#A67C52;stroke:#808080;stroke-miterlimit:10;}
	.st1{fill:#FBB03B;stroke:#808080;stroke-miterlimit:10;}
	.st2{fill:#ED1C24;}
	.st3{fill:#8C6239;stroke:#808080;stroke-miterlimit:10;}
	.st4{fill:#AA4A09;stroke:#808080;stroke-miterlimit:10;}
	.st5{fill:#009245;stroke:#808080;stroke-miterlimit:10;}
</style>
<path class="st0" d="M230.6,47.8c-6.2-0.4-11.5,3.8-13,9.5l-3.2,12.2c0.1,0,0.3,0,0.4,0c48.4,0,87.6,39.2,87.6,87.6
	c0,0.1,0,0.3,0,0.4l12.2-3.2c5.7-1.5,9.9-6.8,9.5-13C320.7,91.3,280.7,51.3,230.6,47.8z"/>
<path class="st1" d="M293.6,159.9c0-0.9,0.1-1.9,0.1-2.8c0-43.6-35.3-78.9-78.9-78.9c-0.9,0-1.9,0-2.8,0.1l-27.7,104
	c-0.4,1.5,0,3.1,1.1,4.2c1.1,1.1,2.7,1.5,4.2,1.1L293.6,159.9z"/>
<circle class="st2" cx="232.4" cy="113.3" r="8.8"/>
<circle class="st2" cx="258.7" cy="139.6" r="8.8"/>
<circle class="st2" cx="219.2" cy="152.7" r="8.8"/>
<path class="st3" d="M24.2,131.8c0-7.7,6.3-14,14-14h112c7.7,0,14,6.3,14,14c0,7.7-6.3,14-14,14h-112
	C30.5,145.8,24.2,139.5,24.2,131.8z"/>
<path class="st4" d="M28.8,159.8c0-2.6,2.1-4.7,4.7-4.7h121.3c2.6,0,4.7,2.1,4.7,4.7v4.7c0,10.3-8.4,18.7-18.7,18.7H47.5
	c-10.3,0-18.7-8.4-18.7-18.7V159.8z"/>
<path class="st5" d="M344.2,100.2c0-9.7,7.9-17.5,17.5-17.5c0.1,0,0.3,0,0.4,0c2-10,10.9-17.5,21.4-17.5c4.1,0,7.9,1.1,11.2,3.1
	c3.6-7,11-11.8,19.4-11.8c8.4,0,15.8,4.8,19.4,11.8c3.3-1.9,7.1-3.1,11.2-3.1c10.6,0,19.4,7.5,21.4,17.5c0.1,0,0.3,0,0.4,0
	c9.7,0,17.5,7.9,17.5,17.5c0,3.2-0.9,6.2-2.4,8.7L346.5,109C345,106.4,344.1,103.4,344.2,100.2z"/>
<path class="st0" d="M344.1,125.2c0-4.1,3.4-7.5,7.5-7.5l125,0.1c4.1,0,7.5,3.4,7.5,7.5c0,19.3-12.2,35.7-29.2,42.1l-0.5,4
	c-0.5,4.4-4.3,7.7-8.7,7.6l-63.3,0c-4.4,0-8.1-3.3-8.7-7.7l-0.5-3.9C356.2,161,344.1,144.5,344.1,125.2z"/>
<path class="st4" d="M159.3,98.3c-1.5-6.1-13.5-45.9-65.2-45.9c-51.7,0-63.6,39.8-65.2,45.9c-0.1,0.6-0.2,1.1-0.2,1.6
	c0,4.7,3.8,8.5,8.5,8.5H151c4.7,0,8.5-3.8,8.5-8.5C159.5,99.4,159.5,98.9,159.3,98.3z M56.8,85.1c-2.6,0-4.7-2.1-4.7-4.7
	c0-2.6,2.1-4.7,4.7-4.7c2.6,0,4.7,2.1,4.7,4.7C61.5,83,59.4,85.1,56.8,85.1z M94.2,75.8c-2.6,0-4.7-2.1-4.7-4.7
	c0-2.6,2.1-4.7,4.7-4.7c2.6,0,4.7,2.1,4.7,4.7C98.8,73.7,96.7,75.8,94.2,75.8z M131.5,85.1c-2.6,0-4.7-2.1-4.7-4.7
	c0-2.6,2.1-4.7,4.7-4.7s4.7,2.1,4.7,4.7C136.2,83,134.1,85.1,131.5,85.1z"/>
</svg>
