<?xml version="1.0" encoding="utf-8"?>
<!-- Generator: Adobe Illustrator 26.5.1, SVG Export Plug-In . SVG Version: 6.00 Build 0)  -->
<svg version="1.1" id="Layer_1" xmlns="http://www.w3.org/2000/svg" xmlns:xlink="http://www.w3.org/1999/xlink" x="0px" y="0px"
	 viewBox="0 0 500 300" style="enable-background:new 0 0 500 300;" xml:space="preserve">
<style type="text/css">
	.st0{fill:#4D4D4D;}
	.st1{fill:#999999;}
</style>
<path class="st0" d="M115.2,46.3c0-11.5,9.3-20.7,20.7-20.7h10.4c11.5,0,20.7,9.3,20.7,20.7v83v41.5v83c0,11.5-9.3,20.7-20.7,20.7
	h-10.4c-11.5,0-20.7-9.3-20.7-20.7V233H84.1c-11.5,0-20.7-9.3-20.7-20.7v-41.5c-11.5,0-20.7-9.3-20.7-20.7s9.3-20.7,20.7-20.7V87.8
	c0-11.5,9.3-20.7,20.7-20.7h31.1V46.3z"/>
<path class="st0" d="M384.8,46.3V67h31.1c11.5,0,20.7,9.3,20.7,20.7v41.5c11.5,0,20.7,9.3,20.7,20.7c0,11.5-9.3,20.7-20.7,20.7v41.5
	c0,11.5-9.3,20.7-20.7,20.7h-31.1v20.7c0,11.5-9.3,20.7-20.7,20.7h-10.4c-11.5,0-20.7-9.3-20.7-20.7v-83v-41.5v-83
	c0-11.5,9.3-20.7,20.7-20.7h10.4C375.5,25.6,384.8,34.8,384.8,46.3z"/>
<rect x="187.8" y="129.3" class="st1" width="124.4" height="41.5"/>
</svg>
