<?xml version="1.0" encoding="utf-8"?>
<!-- Generator: Adobe Illustrator 26.5.1, SVG Export Plug-In . SVG Version: 6.00 Build 0)  -->
<svg version="1.1" id="Layer_1" xmlns="http://www.w3.org/2000/svg" xmlns:xlink="http://www.w3.org/1999/xlink" x="0px" y="0px"
	 viewBox="0 0 500 300" style="enable-background:new 0 0 500 300;" xml:space="preserve">
<style type="text/css">
	.st0{fill:#205906;}
</style>
<g>
	<path class="st0" d="M302.7,190.8l-4,32.3c3.2-0.4,5.9-1.1,8.1-2.1c2.2-1,4.1-2.2,5.4-3.6c1.4-1.4,2.4-3,3.1-4.8
		c0.6-1.8,1-3.6,1-5.7c0-4-1.1-7.2-3.2-9.7C310.9,194.8,307.5,192.6,302.7,190.8z"/>
	<path class="st0" d="M279.5,144.1c0,3.2,1,5.8,3,8c2,2.2,4.9,4.1,8.8,5.9l3.5-28.5c-5.6,0.7-9.5,2.3-11.8,4.9
		C280.6,137,279.5,140.2,279.5,144.1z"/>
	<path class="st0" d="M379.9,137.3l-27.2-23.9V51.2c0-9.1-7.4-16.5-16.5-16.5h-16.5c-9.1,0-16.5,7.4-16.5,16.5V70l-54.9-48.2
		c-3.1-2.6-7.2-3.6-10.8-3.6c-3.6,0-7.7,0.5-11.3,4.1l-132,115c-3.6,3.6-5.1,7.7-5.1,12.4c0,9.3,7.2,16.5,16.5,16.5h16.5v82.6
		c0,18.2,14.8,32.9,32.9,32.9H320c18.3,0,33-14.8,32.9-33.1l-0.4-82.4h16.5c8.7,0,16.5-7.3,16.5-16.5v-0.1
		C386,145,384,140.9,379.9,137.3z M336.4,220.7c-2.2,5.1-5.3,9.4-9.2,12.8c-3.9,3.5-8.5,6.2-13.8,8.1c-5.3,1.9-11.1,3.1-17.4,3.5
		l-3.3,26.3h-15.6l3.2-26.5c-8.3-0.6-16.3-2.2-24.1-4.7v-24.6c4.2,1.6,8.6,3.1,13.2,4.5c4.6,1.4,9.2,2.3,13.6,2.9l4.7-38.1
		c-3.8-1.5-7.6-3.3-11.4-5.3c-3.7-2-7.1-4.5-10.1-7.4c-3-2.9-5.3-6.5-7.2-10.6c-1.8-4.2-2.7-9.2-2.7-15.1c0-4.9,0.8-9.6,2.4-14
		c1.6-4.4,4.1-8.4,7.4-11.8c3.3-3.5,7.6-6.3,12.8-8.6c5.2-2.2,11.3-3.6,18.5-4l2.7-21.5h15.6l-2.7,22.4c3.1,0.4,6.2,0.8,9.3,1.4
		c3,0.6,5.9,1.2,8.7,2v22.6c-3.2-1.2-6.6-2.2-10.1-3.2c-3.6-0.9-7.1-1.6-10.6-2l-4.2,34.3c4,1.7,7.9,3.5,11.9,5.5
		c4,2,7.6,4.5,10.8,7.4c3.2,2.9,5.8,6.5,7.8,10.7c2,4.2,3,9.2,3,15.2C339.7,209.7,338.6,215.7,336.4,220.7z"/>
</g>
</svg>
