<?xml version="1.0" encoding="utf-8"?>
<!-- Generator: Adobe Illustrator 26.5.1, SVG Export Plug-In . SVG Version: 6.00 Build 0)  -->
<svg version="1.1" id="Layer_1" xmlns="http://www.w3.org/2000/svg" xmlns:xlink="http://www.w3.org/1999/xlink" x="0px" y="0px"
	 viewBox="0 0 500 300" style="enable-background:new 0 0 500 300;" xml:space="preserve">
<style type="text/css">
	.st0{fill:#FFFF00;stroke:#FCEE21;stroke-miterlimit:10;}
	.st1{fill:#FBB03B;}
	.st2{fill:#1B1464;}
	.st3{fill:#E6E6E6;stroke:#CCCCCC;stroke-miterlimit:10;}
</style>
<path class="st0" d="M160.5,25.6c-2.2-1.6-5.1-1.9-7.6-0.9s-4.3,3.3-4.8,6l-6.9,41.9l-41.9,6.9c-2.7,0.4-5,2.3-6,4.8
	c-1,2.5-0.7,5.4,0.9,7.6l24.7,34.6L94.2,161c-1.6,2.2-1.9,5.1-0.9,7.6s3.3,4.3,6,4.8l41.9,6.9l6.9,41.9c0.4,2.7,2.3,5,4.8,6
	c2.5,1,5.4,0.7,7.6-0.9l27.1-19.4c-9.8-10.8-15.9-25-16.3-40.6c-8.7-5-15.8-12.8-20-22.8c-10-24.1,1.5-51.7,25.6-61.7
	c14.5-6,30.2-4.3,42.6,3.3c6.4-10.7,16-19.4,27.4-24.7L242,30.7c-0.4-2.7-2.3-5-4.8-6s-5.4-0.7-7.6,0.9l-34.6,24.7L160.5,25.6z"/>
<path d="M236,228.6c-1.2,0.3-2.5,0.3-3.7,0c0.7,0,1.4,0,2.1,0H236L236,228.6z"/>
<path class="st1" d="M213.2,100.8c-8.5-6-19.9-7.7-30.2-3.4c-16.1,6.6-23.7,25.1-17,41.1c1.8,4.3,4.4,7.9,7.5,10.9
	c5.2-19.5,19.6-35.3,38.2-42.5C212.1,104.8,212.6,102.8,213.2,100.8L213.2,100.8z"/>
<path class="st2" d="M229.1,230.6c-5.4-3.6-12.7-2.2-16.4,3.3L197,257.5c-3.6,5.4-2.2,12.7,3.3,16.4c5.5,3.6,12.7,2.2,16.4-3.3
	l15.7-23.6C236,241.6,234.5,234.3,229.1,230.6L229.1,230.6z"/>
<path class="st2" d="M276.3,230.6c-5.4-3.6-12.7-2.2-16.4,3.3l-15.7,23.6c-3.6,5.4-2.2,12.7,3.3,16.4c5.5,3.6,12.7,2.2,16.4-3.3
	l15.7-23.6C283.2,241.6,281.7,234.3,276.3,230.6z"/>
<path class="st2" d="M323.5,230.6c-5.4-3.6-12.7-2.2-16.4,3.3l-15.7,23.6c-3.6,5.4-2.2,12.7,3.3,16.4c5.5,3.6,12.7,2.2,16.4-3.3
	l15.7-23.6C330.4,241.6,328.9,234.3,323.5,230.6z"/>
<path class="st2" d="M370.7,230.6c-5.4-3.6-12.7-2.2-16.4,3.3l-15.7,23.6c-3.6,5.4-2.2,12.7,3.3,16.4c5.5,3.6,12.7,2.2,16.4-3.3
	L374,247C377.6,241.6,376.1,234.3,370.7,230.6z"/>
<path class="st3" d="M407.3,173.5c0-19.3-14-35.4-32.3-38.7c0.6-2.8,0.9-5.6,0.9-8.5c0-21.7-17.6-39.3-39.3-39.3
	c-8.4,0-16.1,2.6-22.5,7.1c-8.3-13.7-23.3-22.8-40.4-22.8c-26.1,0-47.2,21.1-47.2,47.2v0.6c-22.3,3.7-39.3,23.2-39.3,46.5
	c0,26.1,21.1,47.2,47.2,47.2H368C389.7,212.9,407.3,195.3,407.3,173.5z"/>
</svg>
