<?xml version="1.0" encoding="utf-8"?>
<!-- Generator: Adobe Illustrator 26.5.1, SVG Export Plug-In . SVG Version: 6.00 Build 0)  -->
<svg version="1.1" id="Layer_1" xmlns="http://www.w3.org/2000/svg" xmlns:xlink="http://www.w3.org/1999/xlink" x="0px" y="0px"
	 viewBox="0 0 500 300" style="enable-background:new 0 0 500 300;" xml:space="preserve">
<style type="text/css">
	.st0{fill:#C6A620;}
	.st1{fill:#C6A35D;}
</style>
<path class="st0" d="M201.8,29.9c0-10,8.1-18.1,18.1-18.1H238v30.1c0,3.3,2.7,6,6,6h12c3.3,0,6-2.7,6-6V11.8h18.1
	c10,0,18.1,8.1,18.1,18.1v48.2c0,10-8.1,18.1-18.1,18.1h-60.3c-10,0-18.1-8.1-18.1-18.1V29.9H201.8z M159.6,120.2h18.1v30.1
	c0,3.3,2.7,6,6,6h12.1c3.3,0,6-2.7,6-6v-30.1h18.1c10,0,18.1,8.1,18.1,18.1v48.2c0,10-8.1,18.1-18.1,18.1h-60.3
	c-10,0-18.1-8.1-18.1-18.1v-48.2C141.5,128.3,149.6,120.2,159.6,120.2z M280.1,120.2h18.1v30.1c0,3.3,2.7,6,6,6h12.1
	c3.3,0,6-2.7,6-6v-30.1h18.1c10,0,18.1,8.1,18.1,18.1v48.2c0,10-8.1,18.1-18.1,18.1h-60.3c-10,0-18.1-8.1-18.1-18.1v-48.2
	C262.1,128.3,270.1,120.2,280.1,120.2z"/>
<path class="st1" d="M423.5,259.2h-11v-22.1h11c6.1,0,11-4.9,11-11s-4.9-11-11-11h-22.1h-77.3H269h-22.1l0,0h-22.1h-55.2H92.3H70.2
	c-6.1,0-11,4.9-11,11s4.9,11,11,11h11v22.1h-11c-6.1,0-11,4.9-11,11s4.9,11,11,11h22.1h77.3h55.2h22.1l0,0H269h55.2h77.3h22.1
	c6.1,0,11-4.9,11-11S429.6,259.2,423.5,259.2z M158.5,259.2h-55.2v-22.1h55.2V259.2z M224.8,259.2h-44.1v-22.1h44.1h11v22.1H224.8z
	 M313.1,259.2H269h-11v-22.1h11h44.1V259.2z M390.4,259.2h-55.2v-22.1h55.2V259.2z"/>
</svg>
